<svg width="18" height="15" viewBox="0 0 18 15" fill="none" xmlns="http://www.w3.org/2000/svg">
<path d="M17.7589 1.51685C17.7991 1.51685 17.8393 1.51685 17.9196 1.43258C17.9598 1.39045 18 1.34831 18 1.26404V0.252809C18 0.210674 17.9598 0.168539 17.9196 0.0842697C17.8393 0.0421348 17.7991 0 17.7589 0H0.241071C0.160714 0 0.120536 0.0421348 0.0803571 0.0842697C0 0.168539 0 0.210674 0 0.252809V1.26404C0 1.34831 0 1.39045 0.0803571 1.43258C0.120536 1.51685 0.160714 1.51685 0.241071 1.51685H17.7589ZM17.7589 8.25843C17.7991 8.25843 17.8393 8.25843 17.9196 8.17416C17.9598 8.13202 18 8.08989 18 8.00562V6.99438C18 6.95225 17.9598 6.91011 17.9196 6.82584C17.8393 6.78371 17.7991 6.74157 17.7589 6.74157H0.241071C0.160714 6.74157 0.120536 6.78371 0.0803571 6.82584C0 6.91011 0 6.95225 0 6.99438V8.00562C0 8.08989 0 8.13202 0.0803571 8.17416C0.120536 8.25843 0.160714 8.25843 0.241071 8.25843H17.7589ZM17.7589 15C17.7991 15 17.8393 15 17.9196 14.9157C17.9598 14.8736 18 14.8315 18 14.7472V13.736C18 13.6938 17.9598 13.6517 17.9196 13.5674C17.8393 13.5253 17.7991 13.4831 17.7589 13.4831H0.241071C0.160714 13.4831 0.120536 13.5253 0.0803571 13.5674C0 13.6517 0 13.6938 0 13.736V14.7472C0 14.8315 0 14.8736 0.0803571 14.9157C0.120536 15 0.160714 15 0.241071 15H17.7589Z" fill="#BDBDBD"/>
</svg>
