<svg width="30" height="42" viewBox="0 0 30 42" fill="none" xmlns="http://www.w3.org/2000/svg">
<path d="M25.2632 34.2222H4.73684V35.7778H25.2632V34.2222Z" fill="#2F8048"/>
<path d="M15.7895 10.8889H4.73684V12.4444H15.7895V10.8889Z" fill="#2F8048"/>
<path d="M25.2632 29.5556H4.73684V31.1111H25.2632V29.5556Z" fill="#2F8048"/>
<path d="M15.7895 6.22222H4.73684V7.77778H15.7895V6.22222Z" fill="#2F8048"/>
<path d="M20.5263 0H3.15789C1.42101 0 0 1.39996 0 3.11111V38.8889C0 40.6 1.42101 42 3.15789 42H26.8421C28.5789 42 30 40.6 30 38.8889V10.889L20.5263 0ZM20.5263 2.33337L27.9474 10.889H22.1053C21.3158 10.889 20.5263 10.1112 20.5263 9.33341V2.33337ZM28.4211 38.8889C28.4211 39.6666 27.7895 40.4444 26.8421 40.4444H3.15789C2.36846 40.4444 1.57895 39.8222 1.57895 38.8889V3.11111C1.57895 2.33337 2.21053 1.55556 3.15789 1.55556H18.9474V9.33333C18.9474 11.0445 20.3685 12.4444 22.1053 12.4444H28.4211V38.8889Z" fill="#2F8048"/>
<path d="M25.2632 24.8889H4.73684V26.4444H25.2632V24.8889Z" fill="#2F8048"/>
<path d="M25.2632 15.5556H4.73684V17.1111H25.2632V15.5556Z" fill="#2F8048"/>
<path d="M25.2632 20.2222H4.73684V21.7778H25.2632V20.2222Z" fill="#2F8048"/>
</svg>
