<svg width="21" height="17" viewBox="0 0 21 17" fill="none" xmlns="http://www.w3.org/2000/svg">
<path d="M18.4364 0.5H2.56797C1.15146 0.5 0 1.6528 0 3.07096V13.929C0 15.3472 1.15146 16.5 2.56797 16.5H18.432C19.8485 16.5 21 15.3472 21 13.929V3.07531C21.0043 1.65715 19.8529 0.5 18.4364 0.5ZM19.8312 13.929C19.8312 14.699 19.2055 15.3254 18.4364 15.3254H2.56797C1.79888 15.3254 1.17318 14.699 1.17318 13.929V3.07531C1.17318 2.30533 1.79888 1.6789 2.56797 1.6789H18.432C19.2011 1.6789 19.8268 2.30533 19.8268 3.07531V13.929H19.8312Z" fill="#BDBDBD"/>
<path d="M13.2439 8.36517L18.3799 3.75397C18.6189 3.53646 18.6406 3.16669 18.4233 2.92308C18.2061 2.68382 17.8367 2.66207 17.5934 2.87958L10.5109 9.24391L9.1291 8.00845C9.12476 8.0041 9.12041 7.99975 9.12041 7.9954C9.08999 7.96495 9.05958 7.93885 9.02482 7.91275L3.40223 2.87523C3.1589 2.65772 2.78957 2.67947 2.57231 2.92308C2.35505 3.16669 2.37678 3.53646 2.62011 3.75397L7.81687 8.40432L2.64183 13.2548C2.4072 13.4766 2.39416 13.8464 2.61576 14.0857C2.73308 14.2075 2.8895 14.2727 3.04593 14.2727C3.18932 14.2727 3.33271 14.2205 3.44568 14.1161L8.69893 9.19605L10.1241 10.4707C10.2371 10.5707 10.3762 10.6186 10.5152 10.6186C10.6542 10.6186 10.7976 10.5664 10.9063 10.4663L12.3706 9.15255L17.5934 14.1205C17.7064 14.2292 17.8541 14.2814 17.9975 14.2814C18.1539 14.2814 18.306 14.2205 18.4233 14.0987C18.6449 13.8638 18.6362 13.4897 18.4016 13.2678L13.2439 8.36517Z" fill="#BDBDBD"/>
</svg>
