<svg width="20" height="21" viewBox="0 0 20 21" fill="none" xmlns="http://www.w3.org/2000/svg">
<path d="M15.8147 12.8893C15.4047 12.4629 14.9101 12.235 14.3859 12.235C13.866 12.235 13.3671 12.4587 12.9402 12.8851L11.6044 14.2147C11.4945 14.1556 11.3846 14.1008 11.2789 14.0459C11.1267 13.9699 10.983 13.8981 10.8604 13.8222C9.6091 13.0286 8.47196 11.9944 7.38132 10.6563C6.85291 9.98936 6.49782 9.42795 6.23995 8.8581C6.58659 8.54151 6.90786 8.21226 7.22068 7.89568C7.33905 7.77748 7.45741 7.65507 7.57577 7.53688C8.4635 6.65044 8.4635 5.50229 7.57577 4.61585L6.42173 3.46348C6.29068 3.33262 6.15541 3.19755 6.02859 3.06247C5.77495 2.80076 5.50863 2.53061 5.23386 2.27734C4.82381 1.87211 4.33345 1.65683 3.81772 1.65683C3.30199 1.65683 2.80317 1.87211 2.38044 2.27734C2.37622 2.28156 2.37622 2.28156 2.37199 2.28578L0.934715 3.73363C0.393623 4.27394 0.0850311 4.93244 0.0173946 5.69646C-0.0840601 6.92904 0.279486 8.07719 0.558487 8.82855C1.24331 10.6732 2.26631 12.3827 3.79236 14.2147C5.64391 16.4224 7.87168 18.1657 10.4165 19.3941C11.3888 19.8542 12.6866 20.3987 14.1365 20.4916C14.2253 20.4958 14.3183 20.5 14.4028 20.5C15.3793 20.5 16.1994 20.1496 16.842 19.4532C16.8462 19.4447 16.8547 19.4405 16.8589 19.4321C17.0787 19.1661 17.3323 18.9255 17.5987 18.668C17.7804 18.495 17.9664 18.3134 18.1482 18.1235C18.5667 17.6887 18.7865 17.1822 18.7865 16.663C18.7865 16.1396 18.5625 15.6372 18.1355 15.2151L15.8147 12.8893ZM17.3281 17.3341C17.3239 17.3384 17.3239 17.3341 17.3281 17.3341C17.1632 17.5114 16.9942 17.6718 16.8124 17.8491C16.5376 18.1108 16.2586 18.3852 15.9965 18.6934C15.5696 19.1492 15.0665 19.3645 14.4071 19.3645C14.3437 19.3645 14.276 19.3645 14.2126 19.3603C12.9571 19.2801 11.7904 18.7904 10.9153 18.3725C8.52269 17.216 6.42173 15.5739 4.67586 13.4929C3.23436 11.758 2.27054 10.154 1.63222 8.43176C1.23908 7.3807 1.09535 6.5618 1.15876 5.78933C1.20103 5.29545 1.39126 4.886 1.74213 4.53565L3.18363 3.09624C3.39077 2.90207 3.61058 2.79654 3.82618 2.79654C4.09249 2.79654 4.30808 2.95694 4.44336 3.09202C4.44759 3.09624 4.45181 3.10046 4.45604 3.10468C4.7139 3.34529 4.95909 3.59434 5.21695 3.86027C5.348 3.99534 5.48327 4.13042 5.61854 4.26972L6.77259 5.42209C7.22068 5.86953 7.22068 6.2832 6.77259 6.73064C6.65 6.85306 6.53163 6.97547 6.40904 7.09366C6.05395 7.45668 5.71577 7.79437 5.348 8.12362C5.33954 8.13206 5.33109 8.13628 5.32686 8.14472C4.96331 8.50774 5.03095 8.86232 5.10704 9.10292C5.11127 9.11559 5.1155 9.12825 5.11972 9.14091C5.41986 9.86695 5.84259 10.5508 6.48514 11.3655L6.48936 11.3697C7.65609 12.8049 8.88623 13.9235 10.2432 14.7804C10.4165 14.8901 10.5941 14.9787 10.7631 15.0632C10.9153 15.1392 11.0591 15.2109 11.1816 15.2869C11.1986 15.2953 11.2155 15.308 11.2324 15.3164C11.3761 15.3882 11.5114 15.422 11.6509 15.422C12.0017 15.422 12.2216 15.2025 12.2934 15.1307L13.7391 13.6871C13.8829 13.5436 14.1111 13.3705 14.3775 13.3705C14.6396 13.3705 14.8552 13.5351 14.9862 13.6786C14.9904 13.6829 14.9904 13.6829 14.9947 13.6871L17.3239 16.0129C17.7593 16.4435 17.7593 16.8867 17.3281 17.3341Z" fill="#BDBDBD"/>
<path d="M10.8096 5.25745C11.9172 5.44318 12.9233 5.9666 13.7265 6.76861C14.5296 7.57063 15.0496 8.57526 15.2398 9.6812C15.2863 9.95979 15.5273 10.154 15.8021 10.154C15.8359 10.154 15.8655 10.1497 15.8993 10.1455C16.2121 10.0949 16.4192 9.79939 16.3685 9.48703C16.1402 8.14893 15.5062 6.92902 14.5381 5.96238C13.5701 4.99574 12.3484 4.36256 11.0083 4.13462C10.6955 4.08397 10.4038 4.29081 10.3489 4.59895C10.2939 4.90709 10.4968 5.20679 10.8096 5.25745Z" fill="#BDBDBD"/>
<path d="M19.9913 9.32243C19.6151 7.11899 18.5752 5.11395 16.9772 3.51836C15.3793 1.92277 13.3714 0.884369 11.1647 0.508688C10.8561 0.453813 10.5645 0.66487 10.5095 0.973013C10.4588 1.28538 10.6659 1.57664 10.9787 1.63151C12.9486 1.96498 14.7452 2.89785 16.1741 4.32038C17.6029 5.74712 18.5329 7.54111 18.8668 9.50816C18.9133 9.78675 19.1543 9.98093 19.4291 9.98093C19.4629 9.98093 19.4925 9.9767 19.5263 9.97248C19.8349 9.92605 20.0463 9.63057 19.9913 9.32243Z" fill="#BDBDBD"/>
</svg>
