<svg width="83" height="83" viewBox="0 0 83 83" fill="none" xmlns="http://www.w3.org/2000/svg">
<path d="M79.1216 8.27628C81.4032 8.13174 83.136 6.1649 82.9914 3.88322C82.853 1.69697 81.0355 -0.00291921 78.8449 0.00503391H4.15472C1.86837 -0.00343789 0.00820463 1.84342 -9.42777e-05 4.12959C-0.0080474 6.32016 1.69185 8.13779 3.87809 8.27611L0.600021 25.7552C0.204612 26.809 0.00301781 27.9257 0.00526544 29.0512C0.00751306 32.2154 1.55716 35.1782 4.15472 36.985V81.611C4.15472 82.3748 4.77403 82.9941 5.53787 82.9941H77.4618C78.2256 82.9941 78.8449 82.3748 78.8449 81.611V36.985C81.4425 35.1782 82.9921 32.2154 82.9944 29.0512C82.9966 27.9257 82.795 26.809 82.3996 25.7552L79.1216 8.27628ZM2.77157 4.15449C2.77157 3.39064 3.39088 2.77134 4.15472 2.77134H78.8449C79.6088 2.77134 80.2281 3.39064 80.2281 4.15449C80.2281 4.91833 79.6088 5.53764 78.8449 5.53764H4.15472C3.39088 5.53764 2.77157 4.91833 2.77157 4.15449ZM31.8178 80.2278H15.2199V47.0322H31.8178V80.2278ZM76.0786 80.2278H34.5841V45.649C34.5841 44.8852 33.9648 44.2659 33.2009 44.2659H13.8368C13.0729 44.2659 12.4536 44.8852 12.4536 45.649V80.2278H6.92102V38.3253C11.1561 39.5976 15.7142 37.8313 17.9862 34.0375C20.7368 38.623 26.684 40.1106 31.2695 37.36C32.2766 36.7559 33.1655 35.9736 33.8925 35.0513C37.2126 39.2528 43.31 39.9672 47.5113 36.6471C48.1035 36.1791 48.6391 35.6437 49.1072 35.0513C52.4193 39.2492 58.5076 39.9672 62.7054 36.6551C63.6277 35.9276 64.4097 35.0382 65.0134 34.0306C67.2854 37.8244 71.8436 39.5907 76.0786 38.3183V80.2278ZM73.3123 35.967C69.4948 35.9625 66.401 32.8687 66.3966 29.0512C66.3966 28.2874 65.7773 27.6681 65.0134 27.6681C64.2496 27.6681 63.6303 28.2874 63.6303 29.0512C63.6309 32.8706 60.5353 35.9675 56.7159 35.9684C53.965 35.9689 51.4753 34.339 50.3755 31.8175C50.0709 31.117 49.2558 30.7962 48.5555 31.1009C48.2346 31.2404 47.9785 31.4966 47.8388 31.8175C46.3118 35.3185 42.2358 36.9186 38.7349 35.3916C37.1353 34.6938 35.8586 33.4171 35.1608 31.8175C34.8562 31.117 34.0412 30.7962 33.3408 31.1009C33.0199 31.2404 32.7638 31.4966 32.6241 31.8175C31.0971 35.3185 27.0212 36.9186 23.5202 35.3916C20.9987 34.2918 19.3689 31.8021 19.3694 29.0512C19.3694 28.2874 18.7501 27.6681 17.9862 27.6681C17.2224 27.6681 16.6031 28.2874 16.6031 29.0512C16.6371 32.8706 13.5683 35.9945 9.74888 36.0285C5.92948 36.0626 2.80563 32.9937 2.77157 29.1743L3.31238 26.3278C3.31169 26.3159 3.31169 26.3038 3.31238 26.2918L6.68589 8.30395H61.0936L63.6538 22.383C63.7734 23.0402 64.3455 23.5181 65.0134 23.5186C65.0969 23.519 65.1804 23.511 65.2624 23.4951C66.0107 23.3551 66.5051 22.6369 66.3689 21.8879L63.9069 8.30395H76.3138L79.6845 26.2849C79.6852 26.2969 79.6852 26.309 79.6845 26.3209L80.2281 29.1674C80.1646 32.9413 77.0869 35.9675 73.3123 35.967Z" fill="white"/>
<path d="M19.5409 11.0818C18.7831 10.9872 18.0922 11.5247 17.9973 12.2823L16.6141 23.3476C16.5195 24.1054 17.0571 24.7962 17.8147 24.8912C17.8716 24.8983 17.9288 24.9019 17.9862 24.9022C18.6831 24.9014 19.2705 24.3822 19.3569 23.6906L20.7401 12.6254C20.8346 11.8681 20.298 11.1774 19.5409 11.0818Z" fill="white"/>
<path d="M49.7918 26.1471L48.4087 12.3155C48.3323 11.5555 47.6542 11.0012 46.8941 11.0776C46.1341 11.154 45.5798 11.8321 45.6562 12.5922L47.0394 26.4237C47.1104 27.1305 47.7052 27.6685 48.4156 27.6685H48.5539C49.314 27.5925 49.8686 26.9147 49.7927 26.1547C49.7924 26.1521 49.7922 26.1495 49.7918 26.1471Z" fill="white"/>
<path d="M36.1118 11.0781C36.1097 11.078 36.1076 11.0778 36.1055 11.0774C35.3458 10.9972 34.665 11.5481 34.5849 12.3078C34.5846 12.3104 34.5844 12.3128 34.5841 12.3154L33.2009 26.1469C33.121 26.9066 33.6722 27.5871 34.4319 27.667C34.4364 27.6675 34.4411 27.6678 34.4458 27.6684H34.5841C35.2971 27.672 35.896 27.1329 35.9672 26.4235L37.3504 12.592C37.4264 11.832 36.8718 11.1542 36.1118 11.0781Z" fill="white"/>
<path d="M66.3965 47.0327H44.2661C43.5022 47.0327 42.8829 47.652 42.8829 48.4158V62.2473C42.8829 63.0112 43.5022 63.6305 44.2661 63.6305H66.3965C67.1604 63.6305 67.7797 63.0112 67.7797 62.2473V48.4158C67.7797 47.6518 67.1604 47.0327 66.3965 47.0327ZM65.0134 60.8642H45.6492V49.799H65.0134V60.8642Z" fill="white"/>
</svg>
