<svg width="76" height="84" viewBox="0 0 76 84" fill="none" xmlns="http://www.w3.org/2000/svg">
<path d="M39.2 9.79983C39.2 5.9339 36.066 2.79982 32.2 2.79982C28.336 2.80437 25.2046 5.93583 25.2 9.79983C25.2 13.6658 28.3341 16.7998 32.2 16.7998C36.066 16.7998 39.2 13.6658 39.2 9.79983ZM32.2 13.9998C29.8804 13.9998 28 12.1195 28 9.79983C28 7.4802 29.8804 5.59982 32.2 5.59982C34.5196 5.59982 36.4 7.4802 36.4 9.79983C36.4 12.1195 34.5196 13.9998 32.2 13.9998Z" fill="white"/>
<path d="M58.8003 9.79983C58.8003 5.9339 55.6662 2.79982 51.8003 2.79982C47.9363 2.80437 44.8049 5.93583 44.8003 9.79983C44.8003 13.6658 47.9344 16.7998 51.8003 16.7998C55.6662 16.7998 58.8003 13.6658 58.8003 9.79983ZM51.8003 13.9998C49.4807 13.9998 47.6003 12.1195 47.6003 9.79983C47.6003 7.4802 49.4807 5.59982 51.8003 5.59982C54.1199 5.59982 56.0003 7.4802 56.0003 9.79983C56.0003 12.1195 54.1199 13.9998 51.8003 13.9998Z" fill="white"/>
<path d="M32.2 12.5999C33.7464 12.5999 35.0001 11.3463 35.0001 9.79986C35.0001 8.25346 33.7464 6.99986 32.2 6.99986C30.6536 6.99986 29.4 8.25346 29.4 9.79986C29.4 11.3463 30.6536 12.5999 32.2 12.5999Z" fill="white"/>
<path d="M51.8003 12.5999C53.3468 12.5999 54.6004 11.3463 54.6004 9.79986C54.6004 8.25346 53.3468 6.99986 51.8003 6.99986C50.2539 6.99986 49.0003 8.25346 49.0003 9.79986C49.0003 11.3463 50.2539 12.5999 51.8003 12.5999Z" fill="white"/>
<path d="M61.6 60.1998H64.4V57.3998H61.6V54.5998C61.6 53.8267 60.9732 53.1998 60.2 53.1998H43.4C42.6269 53.1998 42 53.8267 42 54.5998V60.1998C42 65.6122 46.3876 69.9998 51.8 69.9998C57.2124 69.9998 61.6 65.6122 61.6 60.1998ZM51.8 67.1998C47.936 67.1953 44.8046 64.0638 44.8 60.1998V55.9998H58.8V60.1998C58.7955 64.0638 55.664 67.1953 51.8 67.1998Z" fill="white"/>
<path d="M71.4 22.4H60.2C59.4268 22.4 58.8 23.0268 58.8 23.8H56V19.6H67.2C67.9731 19.6 68.6 18.9731 68.6 18.2V12.6C68.5916 5.6448 62.9552 0.0084 56 0H1.4C0.62685 0 0 0.62685 0 1.4V82.6C0 83.3731 0.62685 84 1.4 84H60.2C64.064 83.9955 67.1954 80.864 67.2 77V71.4C67.2 70.6269 66.5731 70 65.8 70L51.8 69.9998L19.6 70V19.6H28V30.8C27.2269 30.8 26.6 31.4269 26.6 32.2V46.2C26.6 48.5196 28.4804 50.4 30.8 50.4H33.6C35.9196 50.4 37.8 48.5196 37.8 46.2V32.2C37.8 31.4269 37.1731 30.8 36.4 30.8V19.6H47.6V40.6H46.2C45.4268 40.6 44.8 41.2268 44.8 42V47.6C44.8 48.3731 45.4268 49 46.2 49H49V50.4H54.6V49H57.4C58.1731 49 58.8 48.3731 58.8 47.6V42C58.8 41.2268 58.1731 40.6 57.4 40.6H56V32.2H58.8C58.8 32.9732 59.4268 33.6 60.2 33.6H71.4C73.7196 33.6 75.6 31.7196 75.6 29.4V26.6C75.6 24.2804 73.7196 22.4 71.4 22.4ZM2.8 2.8H16.8V70H2.8V2.8ZM64.4 72.8V77C64.4 79.3196 62.5196 81.2 60.2 81.2H2.8V77H57.4C58.1731 77 58.8 76.3731 58.8 75.6C58.8 74.8269 58.1731 74.2 57.4 74.2H2.8V72.8H64.4ZM35 46.2C35 46.9732 34.3731 47.6 33.6 47.6H30.8C30.0268 47.6 29.4 46.9732 29.4 46.2V33.6H35V46.2ZM30.8 30.8V19.6H33.6V30.8H30.8ZM56 46.2H47.6V43.4H56V46.2ZM50.4 40.6V19.6H53.2V40.6H50.4ZM51.8003 16.7998H32.2L19.6 16.8V2.8L32.2 2.79982H51.8003L56 2.8C61.4098 2.80612 65.7939 7.19022 65.8 12.6V16.8L51.8003 16.7998ZM58.8 29.4H56V26.6H58.8V29.4ZM72.8 29.4C72.8 30.1731 72.1731 30.8 71.4 30.8H61.6V25.2H71.4C72.1731 25.2 72.8 25.8269 72.8 26.6V29.4Z" fill="white"/>
</svg>
