<svg width="100" height="84" viewBox="0 0 100 84" xmlns="http://www.w3.org/2000/svg" fill="#fff">
<path d="M98.3333 0H1.66667C0.74625 0 0 0.750284 0 1.67568V65.3513C0 66.2767 0.74625 67.027 1.66667 67.027H48.3333V80.4324H30C29.0796 80.4324 28.3333 81.1827 28.3333 82.1081C28.3333 83.0335 29.0796 83.7838 30 83.7838H70C70.9204 83.7838 71.6667 83.0335 71.6667 82.1081C71.6667 81.1827 70.9204 80.4324 70 80.4324H51.6667V67.027H98.3333C99.2538 67.027 100 66.2767 100 65.3513V1.67568C100 0.750284 99.2538 0 98.3333 0ZM96.6667 63.6757H3.33333V3.35135H96.6667V63.6757Z"/>
<path d="M72.0696 16.8066C71.9377 16.7735 71.8025 16.7568 71.6667 16.7568H29.2317L28.7917 14.2131C28.3723 11.8076 26.294 10.0532 23.865 10.0541H20C19.0796 10.0541 18.3333 10.8043 18.3333 11.7297C18.3333 12.6551 19.0796 13.4054 20 13.4054H23.865C24.675 13.4046 25.3681 13.9892 25.5083 14.7912L31.21 47.7836C31.566 49.8482 33.1613 51.4728 35.21 51.8571C36.0673 55.441 39.6521 57.6474 43.2167 56.7855C45.61 56.2068 47.4883 54.344 48.0967 51.9459H55.2367C56.1571 55.5302 59.7933 57.6856 63.3583 56.7602C66.9233 55.8348 69.0671 52.1789 68.1467 48.5946C67.2262 45.0103 63.59 42.855 60.025 43.7804C57.6767 44.3899 55.8429 46.2336 55.2367 48.5946H48.0967C47.1973 45.0269 43.5917 42.8676 40.0431 43.7718C37.7731 44.3501 35.9752 46.0899 35.3133 48.3483C34.8842 48.1103 34.5833 47.6916 34.4933 47.2071L33.285 40.2162H61.4617C65.2873 40.22 68.6229 37.6013 69.5467 33.8688L73.2833 18.8379C73.5061 17.94 72.9627 17.0305 72.0696 16.8066ZM61.6667 46.9189C63.5077 46.9189 65 48.4193 65 50.2703C65 52.1213 63.5077 53.6216 61.6667 53.6216C59.8256 53.6216 58.3333 52.1213 58.3333 50.2703C58.3333 48.4193 59.8256 46.9189 61.6667 46.9189ZM41.6667 46.9189C43.5077 46.9189 45 48.4193 45 50.2703C45 52.1213 43.5077 53.6216 41.6667 53.6216C39.8256 53.6216 38.3333 52.1213 38.3333 50.2703C38.3333 48.4193 39.8256 46.9189 41.6667 46.9189ZM66.3133 33.0577C65.7565 35.2956 63.7563 36.8653 61.4617 36.8649H32.7067L29.815 20.1081H69.5333L66.3133 33.0577Z"/>
</svg>
