<svg width="100" height="82" viewBox="0 0 100 82" fill="none" xmlns="http://www.w3.org/2000/svg">
<path d="M99.8867 45.8851C99.8677 45.8385 99.846 45.793 99.8217 45.7491C99.7981 45.6887 99.771 45.63 99.74 45.5731L86.89 25.657C86.5823 25.1807 86.0521 24.8935 85.4833 24.8952H76.6667V1.65968C76.6667 0.743121 75.9204 0 75 0H1.66667C0.74625 0 0 0.743121 0 1.65968V64.7275C0 65.644 0.74625 66.3872 1.66667 66.3872H10.5C8.63396 72.5284 12.1206 79.0134 18.2877 80.8716C24.4548 82.7298 30.9671 79.2578 32.8333 73.1165C33.5 70.9224 33.5 68.5813 32.8333 66.3872H70.5C68.6592 72.5284 72.1663 78.9928 78.3333 80.826C84.5004 82.6591 90.9921 79.1667 92.8329 73.0255C92.9958 72.4821 93.1185 71.9276 93.2 71.3662H98.3333C99.2538 71.3662 100 70.6231 100 69.7065V46.4478C99.9956 46.2553 99.9571 46.0648 99.8867 45.8851ZM76.6667 28.2145H84.5733L95.2817 44.8113H76.6667V28.2145ZM3.33333 3.31936H73.3333V53.1097H3.33333V3.31936ZM21.6667 78.0049C17.0667 77.9995 13.3388 74.2872 13.3333 69.7065C13.3296 68.2423 13.7217 66.8039 14.4683 65.5424C14.9046 64.7879 15.4619 64.1095 16.1183 63.5342C17.6381 62.1635 19.6163 61.4056 21.6667 61.4081C24.6463 61.4119 27.3973 62.9995 28.8817 65.5723C29.624 66.8239 30.0106 68.2528 30 69.7065C29.9946 74.2874 26.2667 77.9995 21.6667 78.0049ZM72.3417 62.7724C72.265 62.8736 72.1667 62.9649 72.0933 63.0678H31.2317C31.1733 62.9848 31.1033 62.9118 31.0433 62.8305C30.9183 62.6645 30.7867 62.4985 30.6533 62.3326C30.4733 62.1151 30.2883 61.9044 30.095 61.7002C29.95 61.5492 29.8 61.4031 29.6483 61.2604C29.4433 61.0679 29.2333 60.887 29.0167 60.7111C28.85 60.5799 28.6833 60.4505 28.5167 60.3293C28.29 60.1634 28.0567 60.0123 27.8183 59.8646C27.6433 59.7551 27.47 59.6455 27.29 59.546C27.04 59.4099 26.79 59.2887 26.525 59.1709C26.3417 59.0862 26.1617 59.0049 25.975 58.9236C25.7 58.814 25.4167 58.7244 25.1417 58.6365C24.96 58.5784 24.7817 58.5136 24.595 58.4705C24.2783 58.3875 23.9533 58.3311 23.6283 58.2763C23.47 58.2481 23.3133 58.2083 23.1533 58.1883C19.7908 57.7446 16.4025 58.7972 13.89 61.0662C13.4785 61.4397 13.0933 61.8405 12.7367 62.2662C12.63 62.3923 12.5317 62.5218 12.4317 62.6512C12.3317 62.7807 12.2017 62.9234 12.0983 63.0678H3.33333V56.4291H73.3333V61.594C73.21 61.7168 73.12 61.8579 73 61.9857C72.7667 62.2429 72.545 62.5019 72.3417 62.7724ZM81.6667 78.0049C77.0667 77.9995 73.3388 74.2872 73.3333 69.7065C73.3296 68.2423 73.7217 66.8039 74.4683 65.5424C74.9046 64.7879 75.4619 64.1095 76.1183 63.5342C77.6381 62.1635 79.6163 61.4056 81.6667 61.4081C84.6463 61.4119 87.3973 62.9995 88.8817 65.5723C89.624 66.8239 90.0106 68.2528 90 69.7065C89.9946 74.2874 86.2667 77.9995 81.6667 78.0049ZM96.6667 68.0468H93.215C93.1515 67.6213 93.0642 67.1996 92.9533 66.7838C92.925 66.6776 92.89 66.5764 92.86 66.4718L92.8333 66.3872H96.6667V68.0468ZM96.6667 63.0678H91.2033C91.1 62.9201 91.01 62.7608 90.9 62.618C90.6817 62.3359 90.4367 62.0786 90.195 61.8197C90.0917 61.7085 90 61.5857 89.8933 61.4878C89.6042 61.2075 89.3004 60.9428 88.9833 60.6945C88.9033 60.6297 88.8333 60.555 88.7517 60.4936C88.4006 60.2306 88.035 59.9874 87.6567 59.765C87.6 59.7318 87.5517 59.6903 87.49 59.6588C87.1073 59.4414 86.7123 59.2462 86.3067 59.0746C86.2483 59.0497 86.195 59.0149 86.14 58.99C85.7265 58.8219 85.3035 58.6777 84.8733 58.5585C84.8167 58.5419 84.7633 58.517 84.7067 58.5004C84.255 58.3784 83.7965 58.2829 83.3333 58.2149C83.2933 58.2149 83.255 58.1966 83.215 58.1917C82.7019 58.1228 82.1846 58.0884 81.6667 58.0888C81.2648 58.0908 80.8631 58.113 80.4633 58.1552C80.34 58.1684 80.2167 58.19 80.0933 58.2066C79.8183 58.2448 79.545 58.2879 79.2733 58.3444C79.1367 58.3742 79 58.4058 78.865 58.4406C78.6033 58.5037 78.3467 58.5784 78.09 58.6597C77.9633 58.7012 77.8367 58.741 77.7117 58.7858C77.4283 58.8887 77.1517 59.0032 76.8783 59.1277C76.81 59.1593 76.7367 59.1808 76.6683 59.214V48.1307H96.6667V63.0678Z" fill="white"/>
<path d="M21.6667 64.7275C18.9052 64.7275 16.6667 66.9566 16.6667 69.7065C16.6667 72.4564 18.9052 74.6855 21.6667 74.6855C24.4281 74.6855 26.6667 72.4564 26.6667 69.7065C26.6667 66.9566 24.4281 64.7275 21.6667 64.7275ZM21.6667 71.3662C20.7463 71.3662 20 70.6231 20 69.7065C20 68.79 20.7463 68.0468 21.6667 68.0468C22.5871 68.0468 23.3333 68.79 23.3333 69.7065C23.3333 70.6231 22.5871 71.3662 21.6667 71.3662Z" fill="white"/>
<path d="M81.6667 64.7275C78.9052 64.7275 76.6667 66.9566 76.6667 69.7065C76.6667 72.4564 78.9052 74.6855 81.6667 74.6855C84.4281 74.6855 86.6667 72.4564 86.6667 69.7065C86.6667 66.9566 84.4281 64.7275 81.6667 64.7275ZM81.6667 71.3662C80.7462 71.3662 80 70.6231 80 69.7065C80 68.79 80.7462 68.0468 81.6667 68.0468C82.5871 68.0468 83.3333 68.79 83.3333 69.7065C83.3333 70.6231 82.5871 71.3662 81.6667 71.3662Z" fill="white"/>
</svg>
