<?xml version="1.0" encoding="utf-8"?><svg xmlns="http://www.w3.org/2000/svg" xmlns:xlink="http://www.w3.org/1999/xlink"><symbol viewBox="0 0 40 42" id="arrow" xmlns="http://www.w3.org/2000/svg"><path opacity=".1" d="M20.305 21.153L3.147.204.61 2.146l10.762 18.292L0 39.752l2.437 2.044 17.868-20.643zm19.695 0L18.376 0l-2.64 2.044L29.949 20.54 15.127 39.854 17.767 42 40 21.153z"/></symbol><symbol viewBox="0 0 18 15" id="bars" xmlns="http://www.w3.org/2000/svg"><path d="M17.759 1.517c.04 0 .08 0 .16-.084.04-.043.081-.085.081-.169V.253c0-.042-.04-.084-.08-.169C17.84.042 17.8 0 17.759 0H.24C.16 0 .12.042.08.084 0 .17 0 .211 0 .253v1.011c0 .084 0 .126.08.169.04.084.08.084.161.084H17.76zm0 6.741c.04 0 .08 0 .16-.084.04-.042.081-.084.081-.168V6.994c0-.042-.04-.084-.08-.168-.08-.042-.12-.084-.161-.084H.24c-.08 0-.12.042-.16.084C0 6.91 0 6.952 0 6.994v1.012c0 .084 0 .126.08.168.04.084.08.084.161.084H17.76zm0 6.742c.04 0 .08 0 .16-.084.04-.042.081-.085.081-.169v-1.011c0-.042-.04-.084-.08-.169-.08-.042-.12-.084-.161-.084H.24c-.08 0-.12.042-.16.084-.081.085-.081.127-.081.169v1.011c0 .085 0 .127.08.169.04.084.08.084.161.084h17.52z"/></symbol><symbol viewBox="0 0 30 42" id="doc" xmlns="http://www.w3.org/2000/svg"><path d="M25.263 34.222H4.737v1.556h20.526v-1.556zM15.79 10.889H4.736v1.555H15.79V10.89zm9.473 18.667H4.737v1.555h20.526v-1.555zM15.79 6.222H4.736v1.556H15.79V6.222z"/><path d="M20.526 0H3.158C1.42 0 0 1.4 0 3.111V38.89C0 40.6 1.421 42 3.158 42h23.684C28.58 42 30 40.6 30 38.889v-28L20.526 0zm0 2.333l7.421 8.556h-5.842c-.79 0-1.579-.778-1.579-1.556v-7zm7.895 36.556a1.57 1.57 0 0 1-1.579 1.555H3.158c-.79 0-1.579-.622-1.579-1.555V3.11a1.57 1.57 0 0 1 1.579-1.555h15.79v7.777c0 1.711 1.42 3.111 3.157 3.111h6.316V38.89z"/><path d="M25.263 24.889H4.737v1.555h20.526V24.89zm0-9.333H4.737v1.555h20.526v-1.555zm0 4.666H4.737v1.556h20.526v-1.556z"/></symbol><symbol viewBox="0 0 21 17" id="mail" xmlns="http://www.w3.org/2000/svg"><path d="M18.436.5H2.568A2.572 2.572 0 0 0 0 3.071v10.858A2.572 2.572 0 0 0 2.568 16.5h15.864A2.572 2.572 0 0 0 21 13.929V3.075A2.569 2.569 0 0 0 18.436.5zm1.395 13.429c0 .77-.625 1.396-1.395 1.396H2.568c-.77 0-1.395-.626-1.395-1.396V3.075c0-.77.626-1.396 1.395-1.396h15.864c.77 0 1.395.626 1.395 1.396V13.93h.004z"/><path d="M13.244 8.365l5.136-4.611a.589.589 0 0 0-.787-.874l-7.082 6.364-1.382-1.236C9.125 8.004 9.12 8 9.12 7.995a.87.87 0 0 0-.095-.082L3.402 2.875a.585.585 0 0 0-.83.048.587.587 0 0 0 .048.831l5.197 4.65-5.175 4.85a.59.59 0 0 0 .804.862l5.253-4.92 1.425 1.275a.586.586 0 0 0 .782-.005l1.465-1.313 5.222 4.967a.586.586 0 0 0 .808-.853l-5.157-4.902z"/></symbol><symbol viewBox="0 0 20 21" id="phone" xmlns="http://www.w3.org/2000/svg"><path d="M15.815 12.89c-.41-.427-.905-.655-1.43-.655-.519 0-1.018.224-1.445.65l-1.336 1.33c-.11-.06-.22-.114-.325-.17a5.407 5.407 0 0 1-.419-.223c-1.25-.793-2.388-1.828-3.479-3.166-.528-.667-.883-1.228-1.141-1.798.347-.316.668-.646.98-.962.12-.119.237-.24.356-.36.888-.886.888-2.034 0-2.92L6.422 3.463c-.131-.13-.267-.265-.393-.4-.254-.262-.52-.532-.795-.786-.41-.405-.9-.62-1.416-.62-.516 0-1.015.215-1.438.62l-.008.009L.935 3.734a3.086 3.086 0 0 0-.918 1.962C-.084 6.93.28 8.077.558 8.83c.685 1.844 1.708 3.554 3.234 5.386a19.89 19.89 0 0 0 6.624 5.18c.973.46 2.27 1.004 3.72 1.097.09.004.182.008.267.008.976 0 1.796-.35 2.439-1.047.004-.008.013-.012.017-.02.22-.267.473-.508.74-.765.181-.173.367-.355.55-.544.418-.435.637-.942.637-1.461 0-.523-.224-1.026-.65-1.448l-2.321-2.326zm1.513 4.444c-.004.004-.004 0 0 0-.165.177-.334.338-.516.515-.274.262-.553.536-.816.844-.426.456-.93.671-1.589.671-.063 0-.131 0-.194-.004-1.256-.08-2.423-.57-3.298-.988a18.773 18.773 0 0 1-6.24-4.88c-1.44-1.734-2.404-3.338-3.043-5.06-.393-1.051-.537-1.87-.473-2.643.042-.494.232-.903.583-1.253l1.442-1.44c.207-.194.427-.3.642-.3.266 0 .482.16.617.296l.013.013c.258.24.503.49.76.755.132.135.267.27.403.41l1.154 1.152c.448.448.448.861 0 1.309-.123.122-.241.244-.364.363-.355.363-.693.7-1.061 1.03-.008.008-.017.012-.021.02-.364.364-.296.718-.22.959l.013.038c.3.726.723 1.41 1.365 2.225l.004.004c1.167 1.435 2.397 2.554 3.754 3.41.173.11.351.199.52.283.152.076.296.148.419.224.017.008.034.021.05.03a.917.917 0 0 0 .419.105c.35 0 .57-.22.642-.291l1.446-1.444c.144-.143.372-.316.638-.316.263 0 .478.164.61.308a.34.34 0 0 0 .008.008l2.329 2.326c.435.43.435.874.004 1.321zM10.81 5.257a5.363 5.363 0 0 1 2.916 1.512A5.378 5.378 0 0 1 15.24 9.68a.567.567 0 0 0 .562.473c.034 0 .064-.004.097-.008a.57.57 0 0 0 .47-.659 6.507 6.507 0 0 0-1.83-3.525 6.523 6.523 0 0 0-3.53-1.827.574.574 0 0 0-.66.464.564.564 0 0 0 .46.658zm9.181 4.065a10.705 10.705 0 0 0-3.014-5.804 10.731 10.731 0 0 0-5.812-3.01.568.568 0 1 0-.186 1.124 9.61 9.61 0 0 1 5.195 2.688 9.558 9.558 0 0 1 2.693 5.188.567.567 0 0 0 .562.473.56.56 0 0 0 .562-.659z"/></symbol></svg>